FFmpeg version SVN-r25716, Copyright (c) 2000-2010 the FFmpeg developers  built on Nov 10 2010 12:23:18 with gcc 4.1.2 20080704 (Red Hat 4.1.2-48)  configuration: --enable-libmp3lame --enable-shared --disable-mmx --arch=x86_64  libavutil     50.33. 0 / 50.33. 0  libavcore      0.12. 1 /  0.12. 1  libavcodec    52.94. 4 / 52.94. 4  libavformat   52.84. 0 / 52.84. 0  libavdevice   52. 2. 2 / 52. 2. 2  libavfilter    1.59. 0 /  1.59. 0  libswscale     0.12. 0 /  0.12. 0Input #0, avi, from '/RAID10/data/converted_video_files/47664.avi':  Duration: 00:00:06.80, start: 0.000000, bitrate: 188610 kb/s    Stream #0.0: Video: msvideo1, rgb555le, 1024x1024, 20 tbr, 20 tbn, 20 tbc[buffer @ 0x1a007690] w:1024 h:1024 pixfmt:rgb555le[ffsink @ 0x1a007900] auto-inserting filter 'auto-inserted scaler 0' between the filter 'src' and the filter 'out'[scale @ 0x1a006810] w:1024 h:1024 fmt:rgb555le -> w:1024 h:1024 fmt:yuv420p flags:0x4Output #0, flv, to '/RAID10/data/converted_video_files/47664.flv':  Metadata:    encoder         : Lavf52.84.0    Stream #0.0: Video: flv, yuv420p, 1024x1024, q=2-31, 600 kb/s, 1k tbn, 24 tbcStream mapping:  Stream #0.0 -> #0.0Press [q] to stop encodingframe=    7 fps=  0 q=8.8 size=     351kB time=0.33 bitrate=8611.2kbits/s    frame=   17 fps= 14 q=14.0 size=     385kB time=0.83 bitrate=3789.0kbits/s    frame=   27 fps= 16 q=15.2 size=     423kB time=1.33 bitrate=2598.1kbits/s    frame=   36 fps= 16 q=10.3 size=     430kB time=1.79 bitrate=1965.9kbits/s    frame=   46 fps= 17 q=10.0 size=     468kB time=2.29 bitrate=1672.2kbits/s    frame=   54 fps= 15 q=11.6 size=     504kB time=2.71 bitrate=1525.6kbits/s    frame=   57 fps= 15 q=9.9 size=     507kB time=2.83 bitrate=1465.6kbits/s    frame=   66 fps= 15 q=11.1 size=     546kB time=3.29 bitrate=1359.2kbits/s    frame=   74 fps= 15 q=10.3 size=     584kB time=3.71 bitrate=1289.3kbits/s    frame=   83 fps= 15 q=9.5 size=     591kB time=4.12 bitrate=1174.9kbits/s    frame=   93 fps= 16 q=9.6 size=     633kB time=4.62 bitrate=1120.4kbits/s    frame=  103 fps= 16 q=13.4 size=     675kB time=5.12 bitrate=1078.5kbits/s    frame=  112 fps= 16 q=11.6 size=     713kB time=5.58 bitrate=1045.4kbits/s    frame=  122 fps= 16 q=10.0 size=     754kB time=6.08 bitrate=1015.0kbits/s    frame=  133 fps= 16 q=7.1 size=     794kB time=6.62 bitrate= 982.2kbits/s    frame=  136 fps= 16 q=12.0 Lsize=     798kB time=6.79 bitrate= 962.6kbits/s    video:796kB audio:0kB global headers:0kB muxing overhead 0.292815%